<svg xmlns="http://www.w3.org/2000/svg" viewBox="0 0 28.87 28.87" id="vimeo"><g data-name="Layer 2"><g data-name="Layer 1"><rect width="28.87" height="28.87" fill="#23b6ea" rx="6.48" ry="6.48"></rect><path fill="#fff" d="M21.85 11c-.13 2.78-5.21 9.84-8.15 9.84q-1.3 0-2.19-2.39c-1.14-4.2-1.65-6.78-2.63-6.78a4.58 4.58 0 0 0-1.16.7l-.7-.9c1.86-1.63 3.36-3.17 4.36-3.26Q13.1 8 13.5 10.56c.34 2.16.84 5.65 1.7 5.65.67 0 2.31-2.71 2.39-3.69.15-1.4-1-1.48-2.1-1q1.1-3.58 4.2-3.52 2.29.07 2.16 3z"></path></g></g></svg>